<svg xmlns="http://www.w3.org/2000/svg" viewBox="0 0 800 200" font-family="Segoe UI, system-ui, sans-serif">
  <rect width="800" height="200" fill="#F8FAFC"/>
  <text x="400" y="28" text-anchor="middle" font-size="16" font-weight="700" fill="#0F172A">‡ö “A</text>
  <!-- Upload row -->
  <rect x="30" y="50" width="100" height="40" rx="8" fill="#059669"/><text x="80" y="75" text-anchor="middle" fill="#fff" font-size="12">K:	‡ö</text>
  <text x="145" y="75" fill="#64748B">’</text>
  <rect x="160" y="50" width="120" height="40" rx="8" fill="#4F46E5"/><text x="220" y="75" text-anchor="middle" fill="#fff" font-size="11">POST /api/upload</text>
  <text x="295" y="75" fill="#64748B">’</text>
  <rect x="310" y="50" width="100" height="40" rx="8" fill="#6366F1"/><text x="360" y="75" text-anchor="middle" fill="#fff" font-size="12">Busboy</text>
  <text x="425" y="75" fill="#64748B">’</text>
  <rect x="440" y="50" width="120" height="40" rx="8" fill="#047857"/><text x="500" y="75" text-anchor="middle" fill="#fff" font-size="12">uploads/</text>
  <!-- Download row -->
  <rect x="30" y="120" width="100" height="40" rx="8" fill="#059669"/><text x="80" y="145" text-anchor="middle" fill="#fff" font-size="12">K:OÈ</text>
  <text x="145" y="145" fill="#64748B">’</text>
  <rect x="160" y="120" width="140" height="40" rx="8" fill="#4F46E5"/><text x="230" y="145" text-anchor="middle" fill="#fff" font-size="11">GET /api/browse/shared</text>
  <text x="315" y="145" fill="#64748B">’</text>
  <rect x="330" y="120" width="150" height="40" rx="8" fill="#4F46E5"/><text x="405" y="145" text-anchor="middle" fill="#fff" font-size="11">GET /api/download/shared</text>
  <text x="495" y="145" fill="#64748B">’</text>
  <rect x="510" y="120" width="120" height="40" rx="8" fill="#047857"/><text x="570" y="145" text-anchor="middle" fill="#fff" font-size="12">ÝX0K:</text>
  <text x="400" y="185" text-anchor="middle" fill="#64748B" font-size="11">5>e shared/ ‡ö9 ’ K:sï}</text>
</svg>
